solid OBJECT
  facet normal 0.999250181296374 0 0.038717892235555079
    outer loop
      vertex -0.010066131382957699 0.13333399593830109 0.04378745178611218
      vertex -0.010066131382957699 0.26666700839996338 0.04378745178611218
      vertex -0.013679772925956448 0.33333298563957214 0.13705006910559656
    endloop
  endfacet
  facet normal 0.999250181296374 6.5004025278092259e-18 0.038717892235555072
    outer loop
      vertex -0.006968707717821862 0.33333298563957214 -0.036152363638457828
      vertex -0.013679772925956448 0.33333298563957214 0.13705006910559656
      vertex -0.010066131382957699 0.26666700839996338 0.04378745178611218
    endloop
  endfacet
  facet normal 0.999250181296374 -0 0.038717892235555079
    outer loop
      vertex -0.010066131382957699 0.13333399593830109 0.04378745178611218
      vertex -0.013679772925956448 2.9462600537044636e-07 0.13705006910559656
      vertex -0.010066131382957699 -0.1333329975605011 0.04378745178611218
    endloop
  endfacet
  facet normal 0.999250181296374 0 0.038717892235555079
    outer loop
      vertex -0.013679772925956448 2.9462600537044636e-07 0.13705006910559656
      vertex -0.010066131382957699 0.13333399593830109 0.04378745178611218
      vertex -0.013679772925956448 0.33333298563957214 0.13705006910559656
    endloop
  endfacet
  facet normal 0.99925018129637388 -0 0.038717892235555072
    outer loop
      vertex -0.010066131382957699 -0.2666659951210022 0.04378745178611218
      vertex -0.010066131382957699 -0.1333329975605011 0.04378745178611218
      vertex -0.013679772925956448 -0.33333200216293335 0.13705006910559656
    endloop
  endfacet
  facet normal 0.999250181296374 0 0.038717892235555079
    outer loop
      vertex -0.013679772925956448 -0.33333200216293335 0.13705006910559656
      vertex -0.010066131382957699 -0.1333329975605011 0.04378745178611218
      vertex -0.013679772925956448 2.9462600537044636e-07 0.13705006910559656
    endloop
  endfacet
  facet normal 0.999250181296374 -6.5003996218740964e-18 0.038717892235555072
    outer loop
      vertex -0.006968707717821862 -0.33333200216293335 -0.036152363638457828
      vertex -0.010066131382957699 -0.2666659951210022 0.04378745178611218
      vertex -0.013679772925956448 -0.33333200216293335 0.13705006910559656
    endloop
  endfacet
  facet normal 0.999250181296374 0 0.038717892235555065
    outer loop
      vertex -0.010066131382957699 0.13333399593830109 0.04378745178611218
      vertex -0.010066131382957699 -0.1333329975605011 0.04378745178611218
      vertex -0.006968707717821862 0.066667303442955017 -0.036152363638457828
    endloop
  endfacet
  facet normal 0.999250181296374 -1.7334227478689006e-18 0.038717892235555065
    outer loop
      vertex -0.006968707717821862 0.066667303442955017 -0.036152363638457828
      vertex -0.010066131382957699 -0.1333329975605011 0.04378745178611218
      vertex -0.006968707717821862 -0.066665701568126678 -0.036152363638457828
    endloop
  endfacet
  facet normal 0.999250181296374 2.1667772724862185e-17 0.038717892235555051
    outer loop
      vertex -0.006968707717821862 -0.31333199143409729 -0.036152363638457828
      vertex -0.010066131382957699 -0.2666659951210022 0.04378745178611218
      vertex -0.006968707717821862 -0.33333200216293335 -0.036152363638457828
    endloop
  endfacet
  facet normal 0.999250181296374 -0 0.038717892235555065
    outer loop
      vertex -0.006968707717821862 0.33333298563957214 -0.036152363638457828
      vertex -0.010066131382957699 0.26666700839996338 0.04378745178611218
      vertex -0.006968707717821862 0.31333300471305847 -0.036152363638457828
    endloop
  endfacet
  facet normal 0 1 -0
    outer loop
      vertex -1.2344060376902832 0.33333298563957214 0.0030196234580220499
      vertex -1.0595371844914754 0.33333298563957214 0.0097952573685636465
      vertex -1.0578594142950863 0.33333298563957214 -0.033505451324869102
    endloop
  endfacet
  facet normal -0 1 -0
    outer loop
      vertex -1.2344060376902832 0.33333298563957214 0.0030196234580220499
      vertex -1.0578594142950863 0.33333298563957214 -0.033505451324869102
      vertex -1.2327282674938942 0.33333298563957214 -0.040281085235410706
    endloop
  endfacet
  facet normal -0 1 0
    outer loop
      vertex -0.013679772925956448 0.33333298563957214 0.13705006910559656
      vertex -0.006968707717821862 0.33333298563957214 -0.036152363638457828
      vertex -0.094014285592844637 0.33333298563957214 -0.039525113893428422
    endloop
  endfacet
  facet normal -0 1 0
    outer loop
      vertex -0.013679772925956448 0.33333298563957214 0.13705006910559656
      vertex -0.094014285592844637 0.33333298563957214 -0.039525113893428422
      vertex -0.18105936134039052 0.33333298563957214 -0.04289784469249306
    endloop
  endfacet
  facet normal -0 1 -0
    outer loop
      vertex -0.47999515217191507 0.33333298563957214 0.11898177255747508
      vertex -0.26810505502243942 0.33333298563957214 -0.046270599434632166
      vertex -0.3551507338145003 0.33333298563957214 -0.049643353599829722
    endloop
  endfacet
  facet normal -0 1 -0
    outer loop
      vertex -0.47999515217191507 0.33333298563957214 0.11898177255747508
      vertex -0.3551507338145003 0.33333298563957214 -0.049643353599829722
      vertex -0.44219641260656117 0.33333298563957214 -0.053016107765027277
    endloop
  endfacet
  facet normal -0 1 0
    outer loop
      vertex -0.26810505502243942 0.33333298563957214 -0.046270599434632166
      vertex -0.013679772925956448 0.33333298563957214 0.13705006910559656
      vertex -0.18105936134039052 0.33333298563957214 -0.04289784469249306
    endloop
  endfacet
  facet normal -0 1 0
    outer loop
      vertex -0.47999515217191507 0.33333298563957214 0.11898177255747508
      vertex -0.52924212117859804 0.33333298563957214 -0.056388863084107933
      vertex -0.61628779997065897 0.33333298563957214 -0.059761617249305489
    endloop
  endfacet
  facet normal -0 1 0
    outer loop
      vertex -0.47999515217191507 0.33333298563957214 0.11898177255747508
      vertex -0.61628779997065897 0.33333298563957214 -0.059761617249305489
      vertex -0.70333347876271979 0.33333298563957214 -0.063134371414503038
    endloop
  endfacet
  facet normal -0 1 -0
    outer loop
      vertex -1.0578594142950863 0.33333298563957214 -0.033505451324869102
      vertex -0.79037915755478072 0.33333298563957214 -0.066507125579700593
      vertex -0.87742483634684154 0.33333298563957214 -0.069879879744898149
    endloop
  endfacet
  facet normal -0 1 -0
    outer loop
      vertex -1.0578594142950863 0.33333298563957214 -0.033505451324869102
      vertex -0.96447051513890247 0.33333298563957214 -0.073252633910095677
      vertex -1.0515152409717294 0.33333298563957214 -0.076625351151033833
    endloop
  endfacet
  facet normal 0 1 0
    outer loop
      vertex -0.96447051513890247 0.33333298563957214 -0.073252633910095677
      vertex -1.0578594142950863 0.33333298563957214 -0.033505451324869102
      vertex -0.87742483634684154 0.33333298563957214 -0.069879879744898149
    endloop
  endfacet
  facet normal -0 1 -0
    outer loop
      vertex -0.79037915755478072 0.33333298563957214 -0.066507125579700593
      vertex -1.0595371844914754 0.33333298563957214 0.0097952573685636465
      vertex -0.70333347876271979 0.33333298563957214 -0.063134371414503038
    endloop
  endfacet
  facet normal 0 1 -0
    outer loop
      vertex -0.52924212117859804 0.33333298563957214 -0.056388863084107933
      vertex -0.47999515217191507 0.33333298563957214 0.11898177255747508
      vertex -0.44219641260656117 0.33333298563957214 -0.053016107765027277
    endloop
  endfacet
  facet normal -0 1 0
    outer loop
      vertex -1.0578594142950863 0.33333298563957214 -0.033505451324869102
      vertex -1.1385598476846526 0.33333298563957214 -0.079998063776439532
      vertex -1.2256045735174799 0.33333298563957214 -0.083370781017377688
    endloop
  endfacet
  facet normal -0 1 0
    outer loop
      vertex -1.0578594142950863 0.33333298563957214 -0.033505451324869102
      vertex -1.2256045735174799 0.33333298563957214 -0.083370781017377688
      vertex -1.2327282674938942 0.33333298563957214 -0.040281085235410706
    endloop
  endfacet
  facet normal 0 1 -0
    outer loop
      vertex -1.0578594142950863 0.33333298563957214 -0.033505451324869102
      vertex -1.0515152409717294 0.33333298563957214 -0.076625351151033833
      vertex -1.1385598476846526 0.33333298563957214 -0.079998063776439532
    endloop
  endfacet
  facet normal 0 1 0
    outer loop
      vertex -1.0595371844914754 0.33333298563957214 0.0097952573685636465
      vertex -0.79037915755478072 0.33333298563957214 -0.066507125579700593
      vertex -1.0578594142950863 0.33333298563957214 -0.033505451324869102
    endloop
  endfacet
  facet normal -0 1 0
    outer loop
      vertex -0.47999515217191507 0.33333298563957214 0.11898177255747508
      vertex -0.70333347876271979 0.33333298563957214 -0.063134371414503038
      vertex -1.0595371844914754 0.33333298563957214 0.0097952573685636465
    endloop
  endfacet
  facet normal 0 1 -0
    outer loop
      vertex -1.0595371844914754 0.33333298563957214 0.0097952573685636465
      vertex -0.94631125026941487 0.33333298563957214 0.10091344815605219
      vertex -0.47999515217191507 0.33333298563957214 0.11898177255747508
    endloop
  endfacet
  facet normal -0 1 0
    outer loop
      vertex -0.26810505502243942 0.33333298563957214 -0.046270599434632166
      vertex -0.47999515217191507 0.33333298563957214 0.11898177255747508
      vertex -0.013679772925956448 0.33333298563957214 0.13705006910559656
    endloop
  endfacet
  facet normal 0 1 -0
    outer loop
      vertex -1.2344060376902832 0.33333298563957214 0.0030196234580220499
      vertex -0.94631125026941487 0.33333298563957214 0.10091344815605219
      vertex -1.0595371844914754 0.33333298563957214 0.0097952573685636465
    endloop
  endfacet
  facet normal 0 1 -0
    outer loop
      vertex -1.3608329772680436 0.33333298563957214 -0.04858055116755073
      vertex -1.2327282674938942 0.33333298563957214 -0.040281085235410706
      vertex -1.3126492993503072 0.33333298563957214 -0.086743498258315815
    endloop
  endfacet
  facet normal 0 1 0
    outer loop
      vertex -1.2256045735174799 0.33333298563957214 -0.083370781017377688
      vertex -1.3126492993503072 0.33333298563957214 -0.086743498258315815
      vertex -1.2327282674938942 0.33333298563957214 -0.040281085235410706
    endloop
  endfacet
  facet normal -0 1 0
    outer loop
      vertex -1.3608329772680436 0.33333298563957214 -0.04858055116755073
      vertex -1.4090166550415446 0.33333298563957214 -0.010417607799282615
      vertex -1.2344060376902832 0.33333298563957214 0.0030196234580220499
    endloop
  endfacet
  facet normal 0 1 0
    outer loop
      vertex -1.2344060376902832 0.33333298563957214 0.0030196234580220499
      vertex -1.4090166550415446 0.33333298563957214 -0.010417607799282615
      vertex -1.4126302965845434 0.33333298563957214 0.08284500952020174
    endloop
  endfacet
  facet normal 0 1 -0
    outer loop
      vertex -1.4126302965845434 0.33333298563957214 0.08284500952020174
      vertex -0.94631125026941487 0.33333298563957214 0.10091344815605219
      vertex -1.2344060376902832 0.33333298563957214 0.0030196234580220499
    endloop
  endfacet
  facet normal 0 1 0
    outer loop
      vertex -1.2327282674938942 0.33333298563957214 -0.040281085235410706
      vertex -1.3608329772680436 0.33333298563957214 -0.04858055116755073
      vertex -1.2344060376902832 0.33333298563957214 0.0030196234580220499
    endloop
  endfacet
  facet normal -0.99925018129637377 0 -0.038717892235555766
    outer loop
      vertex -1.4126302965845434 0.33333298563957214 0.08284500952020174
      vertex -1.4090166550415446 0.33333298563957214 -0.010417607799282615
      vertex -1.4090166550415446 0.26666700839996338 -0.010417607799282615
    endloop
  endfacet
  facet normal -0.99925018129637377 -0 -0.038717892235555766
    outer loop
      vertex -1.4126302965845434 0.11111199855804443 0.08284500952020174
      vertex -1.4090166550415446 0.13333399593830109 -0.010417607799282615
      vertex -1.4090166550415446 2.9462600537044636e-07 -0.010417607799282615
    endloop
  endfacet
  facet normal -0.99925018129637377 -0 -0.038717892235555766
    outer loop
      vertex -1.4126302965845434 -0.11111000180244446 0.08284500952020174
      vertex -1.4090166550415446 2.9462600537044636e-07 -0.010417607799282615
      vertex -1.4090166550415446 -0.1333329975605011 -0.010417607799282615
    endloop
  endfacet
  facet normal -0.99925018129637377 -0 -0.038717892235555773
    outer loop
      vertex -1.4090166550415446 0.13333399593830109 -0.010417607799282615
      vertex -1.4126302965845434 0.11111199855804443 0.08284500952020174
      vertex -1.4090166550415446 0.26666700839996338 -0.010417607799282615
    endloop
  endfacet
  facet normal -0.99925018129637366 0 -0.038717892235555766
    outer loop
      vertex -1.4126302965845434 0.11111199855804443 0.08284500952020174
      vertex -1.4090166550415446 2.9462600537044636e-07 -0.010417607799282615
      vertex -1.4126302965845434 -0.11111000180244446 0.08284500952020174
    endloop
  endfacet
  facet normal -0.99925018129637366 -0 -0.038717892235555766
    outer loop
      vertex -1.4090166550415446 -0.1333329975605011 -0.010417607799282615
      vertex -1.4090166550415446 -0.2666659951210022 -0.010417607799282615
      vertex -1.4126302965845434 -0.11111000180244446 0.08284500952020174
    endloop
  endfacet
  facet normal -0.99925018129637366 0 -0.038717892235555766
    outer loop
      vertex -1.4090166550415446 -0.33333200216293335 -0.010417607799282615
      vertex -1.4126302965845434 -0.33333200216293335 0.08284500952020174
      vertex -1.4090166550415446 -0.2666659951210022 -0.010417607799282615
    endloop
  endfacet
  facet normal -0.99925018129637366 0 -0.038717892235555766
    outer loop
      vertex -1.4126302965845434 -0.11111000180244446 0.08284500952020174
      vertex -1.4090166550415446 -0.2666659951210022 -0.010417607799282615
      vertex -1.4126302965845434 -0.33333200216293335 0.08284500952020174
    endloop
  endfacet
  facet normal -0.99925018129637366 0 -0.038717892235555766
    outer loop
      vertex -1.4126302965845434 0.33333298563957214 0.08284500952020174
      vertex -1.4090166550415446 0.26666700839996338 -0.010417607799282615
      vertex -1.4126302965845434 0.11111199855804443 0.08284500952020174
    endloop
  endfacet
  facet normal -0.62087826599128315 0 -0.78390699628186589
    outer loop
      vertex -1.4090166550415446 -0.33333200216293335 -0.010417607799282615
      vertex -1.4090166550415446 -0.2666659951210022 -0.010417607799282615
      vertex -1.3608329772680436 -0.28999900817871094 -0.04858055116755073
    endloop
  endfacet
  facet normal -0.62087826599128315 0 -0.78390699628186589
    outer loop
      vertex -1.4090166550415446 -0.33333200216293335 -0.010417607799282615
      vertex -1.3608329772680436 -0.28999900817871094 -0.04858055116755073
      vertex -1.3608329772680436 -0.33333200216293335 -0.04858055116755073
    endloop
  endfacet
  facet normal -0.62087830206502892 -0 -0.78390696771035706
    outer loop
      vertex -1.3126492993503072 -0.33333200216293335 -0.086743498258315815
      vertex -1.3608329772680436 -0.33333200216293335 -0.04858055116755073
      vertex -1.3126492993503072 -0.31333199143409729 -0.086743498258315815
    endloop
  endfacet
  facet normal -0.62087830206502892 0 -0.78390696771035706
    outer loop
      vertex -1.3608329772680436 -0.28999900817871094 -0.04858055116755073
      vertex -1.3126492993503072 -0.31333199143409729 -0.086743498258315815
      vertex -1.3608329772680436 -0.33333200216293335 -0.04858055116755073
    endloop
  endfacet
  facet normal 0.038717892235555176 0 -0.999250181296374
    outer loop
      vertex -0.094014285592844637 -0.31333199143409729 -0.039525113893428422
      vertex -0.006968707717821862 -0.31333199143409729 -0.036152363638457828
      vertex -0.006968707717821862 -0.33333200216293335 -0.036152363638457828
    endloop
  endfacet
  facet normal 0.038717892235555176 0 -0.999250181296374
    outer loop
      vertex -0.094014285592844637 -0.31333199143409729 -0.039525113893428422
      vertex -0.006968707717821862 -0.33333200216293335 -0.036152363638457828
      vertex -0.094014285592844637 -0.33333200216293335 -0.039525113893428422
    endloop
  endfacet
  facet normal 0.038717892235555079 0 -0.999250181296374
    outer loop
      vertex -0.26810505502243942 -0.31333199143409729 -0.046270599434632166
      vertex -0.18105936134039052 -0.31333199143409729 -0.04289784469249306
      vertex -0.18105936134039052 -0.33333200216293335 -0.04289784469249306
    endloop
  endfacet
  facet normal 0.038717892235555079 0 -0.999250181296374
    outer loop
      vertex -0.26810505502243942 -0.31333199143409729 -0.046270599434632166
      vertex -0.18105936134039052 -0.33333200216293335 -0.04289784469249306
      vertex -0.26810505502243942 -0.33333200216293335 -0.046270599434632166
    endloop
  endfacet
  facet normal 0.03871789223555501 0 -0.999250181296374
    outer loop
      vertex -0.18105936134039052 -0.31333199143409729 -0.04289784469249306
      vertex -0.094014285592844637 -0.31333199143409729 -0.039525113893428422
      vertex -0.094014285592844637 -0.33333200216293335 -0.039525113893428422
    endloop
  endfacet
  facet normal 0.038717892235555003 0 -0.999250181296374
    outer loop
      vertex -0.18105936134039052 -0.31333199143409729 -0.04289784469249306
      vertex -0.094014285592844637 -0.33333200216293335 -0.039525113893428422
      vertex -0.18105936134039052 -0.33333200216293335 -0.04289784469249306
    endloop
  endfacet
  facet normal 0.038717892235555107 0 -0.99925018129637388
    outer loop
      vertex -0.44219641260656117 -0.31333199143409729 -0.053016107765027277
      vertex -0.3551507338145003 -0.31333199143409729 -0.049643353599829722
      vertex -0.3551507338145003 -0.33333200216293335 -0.049643353599829722
    endloop
  endfacet
  facet normal 0.038717892235555107 0 -0.99925018129637388
    outer loop
      vertex -0.44219641260656117 -0.31333199143409729 -0.053016107765027277
      vertex -0.3551507338145003 -0.33333200216293335 -0.049643353599829722
      vertex -0.44219641260656117 -0.33333200216293335 -0.053016107765027277
    endloop
  endfacet
  facet normal 0.038717892235555086 0 -0.999250181296374
    outer loop
      vertex -0.52924212117859804 -0.31333199143409729 -0.056388863084107933
      vertex -0.52924212117859804 -0.33333200216293335 -0.056388863084107933
      vertex -0.61628779997065897 -0.33333200216293335 -0.059761617249305489
    endloop
  endfacet
  facet normal 0.038717892235555086 -0 -0.999250181296374
    outer loop
      vertex -0.52924212117859804 -0.31333199143409729 -0.056388863084107933
      vertex -0.61628779997065897 -0.33333200216293335 -0.059761617249305489
      vertex -0.61628779997065897 -0.31333199143409729 -0.059761617249305489
    endloop
  endfacet
  facet normal 0.038717892235555065 0 -0.99925018129637388
    outer loop
      vertex -0.44219641260656117 -0.31333199143409729 -0.053016107765027277
      vertex -0.44219641260656117 -0.33333200216293335 -0.053016107765027277
      vertex -0.52924212117859804 -0.33333200216293335 -0.056388863084107933
    endloop
  endfacet
  facet normal 0.038717892235555065 0 -0.99925018129637388
    outer loop
      vertex -0.44219641260656117 -0.31333199143409729 -0.053016107765027277
      vertex -0.52924212117859804 -0.33333200216293335 -0.056388863084107933
      vertex -0.52924212117859804 -0.31333199143409729 -0.056388863084107933
    endloop
  endfacet
  facet normal 0.038717892235555107 0 -0.99925018129637388
    outer loop
      vertex -0.3551507338145003 -0.31333199143409729 -0.049643353599829722
      vertex -0.26810505502243942 -0.31333199143409729 -0.046270599434632166
      vertex -0.26810505502243942 -0.33333200216293335 -0.046270599434632166
    endloop
  endfacet
  facet normal 0.038717892235555107 0 -0.99925018129637388
    outer loop
      vertex -0.3551507338145003 -0.31333199143409729 -0.049643353599829722
      vertex -0.26810505502243942 -0.33333200216293335 -0.046270599434632166
      vertex -0.3551507338145003 -0.33333200216293335 -0.049643353599829722
    endloop
  endfacet
  facet normal 0.038717892235555051 0 -0.99925018129637388
    outer loop
      vertex -0.61628779997065897 -0.31333199143409729 -0.059761617249305489
      vertex -0.61628779997065897 -0.33333200216293335 -0.059761617249305489
      vertex -0.70333347876271979 -0.33333200216293335 -0.063134371414503038
    endloop
  endfacet
  facet normal 0.038717892235555051 0 -0.99925018129637388
    outer loop
      vertex -0.61628779997065897 -0.31333199143409729 -0.059761617249305489
      vertex -0.70333347876271979 -0.33333200216293335 -0.063134371414503038
      vertex -0.70333347876271979 -0.31333199143409729 -0.063134371414503038
    endloop
  endfacet
  facet normal 0.038717892235555086 0 -0.999250181296374
    outer loop
      vertex -0.70333347876271979 -0.31333199143409729 -0.063134371414503038
      vertex -0.70333347876271979 -0.33333200216293335 -0.063134371414503038
      vertex -0.79037915755478072 -0.33333200216293335 -0.066507125579700593
    endloop
  endfacet
  facet normal 0.038717892235555086 -0 -0.999250181296374
    outer loop
      vertex -0.70333347876271979 -0.31333199143409729 -0.063134371414503038
      vertex -0.79037915755478072 -0.33333200216293335 -0.066507125579700593
      vertex -0.79037915755478072 -0.31333199143409729 -0.066507125579700593
    endloop
  endfacet
  facet normal 0.038717892235554767 0 -0.999250181296374
    outer loop
      vertex -0.96447051513890247 -0.31333199143409729 -0.073252633910095677
      vertex -0.87742483634684154 -0.31333199143409729 -0.069879879744898149
      vertex -0.87742483634684154 -0.33333200216293335 -0.069879879744898149
    endloop
  endfacet
  facet normal 0.038717892235554767 0 -0.999250181296374
    outer loop
      vertex -0.96447051513890247 -0.31333199143409729 -0.073252633910095677
      vertex -0.87742483634684154 -0.33333200216293335 -0.069879879744898149
      vertex -0.96447051513890247 -0.33333200216293335 -0.073252633910095677
    endloop
  endfacet
  facet normal 0.038717892235555128 0 -0.99925018129637388
    outer loop
      vertex -0.87742483634684154 -0.31333199143409729 -0.069879879744898149
      vertex -0.79037915755478072 -0.31333199143409729 -0.066507125579700593
      vertex -0.79037915755478072 -0.33333200216293335 -0.066507125579700593
    endloop
  endfacet
  facet normal 0.038717892235555135 0 -0.999250181296374
    outer loop
      vertex -0.87742483634684154 -0.31333199143409729 -0.069879879744898149
      vertex -0.79037915755478072 -0.33333200216293335 -0.066507125579700593
      vertex -0.87742483634684154 -0.33333200216293335 -0.069879879744898149
    endloop
  endfacet
  facet normal 0.038717892235554878 0 -0.999250181296374
    outer loop
      vertex -1.0515152409717294 -0.31333199143409729 -0.076625351151033833
      vertex -1.0515152409717294 -0.33333200216293335 -0.076625351151033833
      vertex -1.1385598476846526 -0.33333200216293335 -0.079998063776439532
    endloop
  endfacet
  facet normal 0.038717892235554878 -0 -0.999250181296374
    outer loop
      vertex -1.0515152409717294 -0.31333199143409729 -0.076625351151033833
      vertex -1.1385598476846526 -0.33333200216293335 -0.079998063776439532
      vertex -1.1385598476846526 -0.31333199143409729 -0.079998063776439532
    endloop
  endfacet
  facet normal 0.03871789223555492 0 -0.999250181296374
    outer loop
      vertex -1.2256045735174799 -0.31333199143409729 -0.083370781017377688
      vertex -1.2256045735174799 -0.33333200216293335 -0.083370781017377688
      vertex -1.3126492993503072 -0.33333200216293335 -0.086743498258315815
    endloop
  endfacet
  facet normal 0.03871789223555492 -0 -0.999250181296374
    outer loop
      vertex -1.2256045735174799 -0.31333199143409729 -0.083370781017377688
      vertex -1.3126492993503072 -0.33333200216293335 -0.086743498258315815
      vertex -1.3126492993503072 -0.31333199143409729 -0.086743498258315815
    endloop
  endfacet
  facet normal 0.038717892235555239 0 -0.999250181296374
    outer loop
      vertex -1.1385598476846526 -0.31333199143409729 -0.079998063776439532
      vertex -1.1385598476846526 -0.33333200216293335 -0.079998063776439532
      vertex -1.2256045735174799 -0.33333200216293335 -0.083370781017377688
    endloop
  endfacet
  facet normal 0.038717892235555239 -0 -0.999250181296374
    outer loop
      vertex -1.1385598476846526 -0.31333199143409729 -0.079998063776439532
      vertex -1.2256045735174799 -0.33333200216293335 -0.083370781017377688
      vertex -1.2256045735174799 -0.31333199143409729 -0.083370781017377688
    endloop
  endfacet
  facet normal 0.038717892235555385 0 -0.999250181296374
    outer loop
      vertex -1.0515152409717294 -0.31333199143409729 -0.076625351151033833
      vertex -0.96447051513890247 -0.31333199143409729 -0.073252633910095677
      vertex -0.96447051513890247 -0.33333200216293335 -0.073252633910095677
    endloop
  endfacet
  facet normal 0.038717892235555385 0 -0.999250181296374
    outer loop
      vertex -1.0515152409717294 -0.31333199143409729 -0.076625351151033833
      vertex -0.96447051513890247 -0.33333200216293335 -0.073252633910095677
      vertex -1.0515152409717294 -0.33333200216293335 -0.076625351151033833
    endloop
  endfacet
  facet normal -0.62087826599128315 0 -0.78390699628186589
    outer loop
      vertex -1.4090166550415446 0.26666700839996338 -0.010417607799282615
      vertex -1.4090166550415446 0.33333298563957214 -0.010417607799282615
      vertex -1.3608329772680436 0.28999999165534973 -0.04858055116755073
    endloop
  endfacet
  facet normal -0.62087826599128315 0 -0.78390699628186589
    outer loop
      vertex -1.3608329772680436 0.33333298563957214 -0.04858055116755073
      vertex -1.3608329772680436 0.28999999165534973 -0.04858055116755073
      vertex -1.4090166550415446 0.33333298563957214 -0.010417607799282615
    endloop
  endfacet
  facet normal -0.62087830206502892 -0 -0.78390696771035706
    outer loop
      vertex -1.3126492993503072 0.31333300471305847 -0.086743498258315815
      vertex -1.3608329772680436 0.33333298563957214 -0.04858055116755073
      vertex -1.3126492993503072 0.33333298563957214 -0.086743498258315815
    endloop
  endfacet
  facet normal -0.62087830206502892 -0 -0.78390696771035706
    outer loop
      vertex -1.3608329772680436 0.28999999165534973 -0.04858055116755073
      vertex -1.3608329772680436 0.33333298563957214 -0.04858055116755073
      vertex -1.3126492993503072 0.31333300471305847 -0.086743498258315815
    endloop
  endfacet
  facet normal 0.038717892235555072 0 -0.999250181296374
    outer loop
      vertex -0.20991546665867694 0.13333399593830109 0.036043900499972734
      vertex -0.010066131382957699 0.26666700839996338 0.04378745178611218
      vertex -0.010066131382957699 0.13333399593830109 0.04378745178611218
    endloop
  endfacet
  facet normal 0.038717892235555065 1.3000701895693818e-17 -0.999250181296374
    outer loop
      vertex -0.35980299980912822 0.26666700839996338 0.030236216433862855
      vertex -0.010066131382957699 0.26666700839996338 0.04378745178611218
      vertex -0.20991546665867694 0.13333399593830109 0.036043900499972734
    endloop
  endfacet
  facet normal 0.038717892235555065 1.4625789632655549e-17 -0.999250181296374
    outer loop
      vertex -0.35980299980912822 0.26666700839996338 0.030236216433862855
      vertex -0.20991546665867694 0.13333399593830109 0.036043900499972734
      vertex -0.40976549100596127 0.13333399593830109 0.028300322514414965
    endloop
  endfacet
  facet normal 0.038717892235555065 1.3000701895693818e-17 -0.999250181296374
    outer loop
      vertex -0.60961453261403609 0.13333399593830109 0.02055678260699971
      vertex -0.70953957456765426 0.26666700839996338 0.016684992460337722
      vertex -0.35980299980912822 0.26666700839996338 0.030236216433862855
    endloop
  endfacet
  facet normal 0.038717892235555058 1.6263152666488106e-17 -0.99925018129637388
    outer loop
      vertex -0.60961453261403609 0.13333399593830109 0.02055678260699971
      vertex -0.35980299980912822 0.26666700839996338 0.030236216433862855
      vertex -0.40976549100596127 0.13333399593830109 0.028300322514414965
    endloop
  endfacet
  facet normal 0.038717892235555086 9.750540951257105e-18 -0.999250181296374
    outer loop
      vertex -0.70953957456765426 0.26666700839996338 0.016684992460337722
      vertex -0.80946455696132036 0.13333399593830109 0.012813204621441941
      vertex -1.0093136283493711 0.13333399593830109 0.0050696635601435794
    endloop
  endfacet
  facet normal 0.038717892235555072 5.2002807582775274e-17 -0.999250181296374
    outer loop
      vertex -0.70953957456765426 0.26666700839996338 0.016684992460337722
      vertex -1.0093136283493711 0.13333399593830109 0.0050696635601435794
      vertex -1.0592790677638331 0.26666700839996338 0.0031336554062681432
    endloop
  endfacet
  facet normal 0.038717892235555065 4.8789232623314517e-17 -0.99925018129637388
    outer loop
      vertex -1.0592790677638331 0.26666700839996338 0.0031336554062681432
      vertex -1.2091666902542124 0.13333399593830109 -0.0026740321214910601
      vertex -1.4090166550415446 0.13333399593830109 -0.010417607799282615
    endloop
  endfacet
  facet normal 0.038717892235555086 -0 -0.999250181296374
    outer loop
      vertex -1.0592790677638331 0.26666700839996338 0.0031336554062681432
      vertex -1.4090166550415446 0.13333399593830109 -0.010417607799282615
      vertex -1.4090166550415446 0.26666700839996338 -0.010417607799282615
    endloop
  endfacet
  facet normal 0.038717892235555072 4.5502456634928365e-17 -0.999250181296374
    outer loop
      vertex -1.2091666902542124 0.13333399593830109 -0.0026740321214910601
      vertex -1.0592790677638331 0.26666700839996338 0.0031336554062681432
      vertex -1.0093136283493711 0.13333399593830109 0.0050696635601435794
    endloop
  endfacet
  facet normal 0.038717892235555079 1.9501052843540728e-17 -0.999250181296374
    outer loop
      vertex -0.60961453261403609 0.13333399593830109 0.02055678260699971
      vertex -0.80946455696132036 0.13333399593830109 0.012813204621441941
      vertex -0.70953957456765426 0.26666700839996338 0.016684992460337722
    endloop
  endfacet
  facet normal -0.6208782840281567 0 -0.78390698199611153
    outer loop
      vertex -1.3126492993503072 0.066667303442955017 -0.086743498258315815
      vertex -1.4090166550415446 2.9462600537044636e-07 -0.010417607799282615
      vertex -1.4090166550415446 0.13333399593830109 -0.010417607799282615
    endloop
  endfacet
  facet normal -0.62087828402815659 0 -0.78390698199611142
    outer loop
      vertex -1.4090166550415446 -0.1333329975605011 -0.010417607799282615
      vertex -1.4090166550415446 2.9462600537044636e-07 -0.010417607799282615
      vertex -1.3126492993503072 -0.066665701568126678 -0.086743498258315815
    endloop
  endfacet
  facet normal -0.62087828402815659 -0 -0.78390698199611142
    outer loop
      vertex -1.3126492993503072 0.066667303442955017 -0.086743498258315815
      vertex -1.3126492993503072 -0.066665701568126678 -0.086743498258315815
      vertex -1.4090166550415446 2.9462600537044636e-07 -0.010417607799282615
    endloop
  endfacet
  facet normal 0.038717892235555072 -0 -0.999250181296374
    outer loop
      vertex -0.010066131382957699 -0.2666659951210022 0.04378745178611218
      vertex -0.20991546665867694 -0.1333329975605011 0.036043900499972734
      vertex -0.010066131382957699 -0.1333329975605011 0.04378745178611218
    endloop
  endfacet
  facet normal 0.038717892235555065 -1.3000703348639138e-17 -0.999250181296374
    outer loop
      vertex -0.35980299980912822 -0.2666659951210022 0.030236216433862855
      vertex -0.40976549100596127 -0.1333329975605011 0.028300322514414965
      vertex -0.20991546665867694 -0.1333329975605011 0.036043900499972734
    endloop
  endfacet
  facet normal 0.038717892235555065 -1.3000703348639138e-17 -0.999250181296374
    outer loop
      vertex -0.010066131382957699 -0.2666659951210022 0.04378745178611218
      vertex -0.35980299980912822 -0.2666659951210022 0.030236216433862855
      vertex -0.20991546665867694 -0.1333329975605011 0.036043900499972734
    endloop
  endfacet
  facet normal 0.038717892235555065 -1.3000703348639138e-17 -0.999250181296374
    outer loop
      vertex -0.40976549100596127 -0.1333329975605011 0.028300322514414965
      vertex -0.35980299980912822 -0.2666659951210022 0.030236216433862855
      vertex -0.70953957456765426 -0.2666659951210022 0.016684992460337722
    endloop
  endfacet
  facet normal 0.038717892235555065 -9.7505444625516355e-18 -0.999250181296374
    outer loop
      vertex -0.40976549100596127 -0.1333329975605011 0.028300322514414965
      vertex -0.70953957456765426 -0.2666659951210022 0.016684992460337722
      vertex -0.60961453261403609 -0.1333329975605011 0.02055678260699971
    endloop
  endfacet
  facet normal 0.038717892235555072 -2.6001406697278275e-17 -0.999250181296374
    outer loop
      vertex -0.80946455696132036 -0.1333329975605011 0.012813204621441941
      vertex -0.70953957456765426 -0.2666659951210022 0.016684992460337722
      vertex -1.0592790677638331 -0.2666659951210022 0.0031336554062681432
    endloop
  endfacet
  facet normal 0.038717892235555086 -5.687879926586799e-17 -0.999250181296374
    outer loop
      vertex -0.80946455696132036 -0.1333329975605011 0.012813204621441941
      vertex -1.0592790677638331 -0.2666659951210022 0.0031336554062681432
      vertex -1.0093136283493711 -0.1333329975605011 0.0050696635601435794
    endloop
  endfacet
  facet normal 0.038717892235555072 -4.7127549638816878e-17 -0.999250181296374
    outer loop
      vertex -1.0592790677638331 -0.2666659951210022 0.0031336554062681432
      vertex -1.2091666902542124 -0.1333329975605011 -0.0026740321214910601
      vertex -1.0093136283493711 -0.1333329975605011 0.0050696635601435794
    endloop
  endfacet
  facet normal 0.038717892235555065 0 -0.99925018129637388
    outer loop
      vertex -1.4090166550415446 -0.2666659951210022 -0.010417607799282615
      vertex -1.4090166550415446 -0.1333329975605011 -0.010417607799282615
      vertex -1.2091666902542124 -0.1333329975605011 -0.0026740321214910601
    endloop
  endfacet
  facet normal 0.038717892235555086 -2.6001406697278275e-17 -0.999250181296374
    outer loop
      vertex -1.4090166550415446 -0.2666659951210022 -0.010417607799282615
      vertex -1.2091666902542124 -0.1333329975605011 -0.0026740321214910601
      vertex -1.0592790677638331 -0.2666659951210022 0.0031336554062681432
    endloop
  endfacet
  facet normal 0.038717892235555079 -1.9501055022958706e-17 -0.999250181296374
    outer loop
      vertex -0.60961453261403609 -0.1333329975605011 0.02055678260699971
      vertex -0.70953957456765426 -0.2666659951210022 0.016684992460337722
      vertex -0.80946455696132036 -0.1333329975605011 0.012813204621441941
    endloop
  endfacet
  facet normal 0.038717892235555176 0 -0.999250181296374
    outer loop
      vertex -0.094014285592844637 0.33333298563957214 -0.039525113893428422
      vertex -0.006968707717821862 0.33333298563957214 -0.036152363638457828
      vertex -0.006968707717821862 0.31333300471305847 -0.036152363638457828
    endloop
  endfacet
  facet normal 0.038717892235555176 0 -0.999250181296374
    outer loop
      vertex -0.094014285592844637 0.33333298563957214 -0.039525113893428422
      vertex -0.006968707717821862 0.31333300471305847 -0.036152363638457828
      vertex -0.094014285592844637 0.31333300471305847 -0.039525113893428422
    endloop
  endfacet
  facet normal 0.038717892235555079 0 -0.999250181296374
    outer loop
      vertex -0.26810505502243942 0.33333298563957214 -0.046270599434632166
      vertex -0.18105936134039052 0.33333298563957214 -0.04289784469249306
      vertex -0.18105936134039052 0.31333300471305847 -0.04289784469249306
    endloop
  endfacet
  facet normal 0.038717892235555079 0 -0.999250181296374
    outer loop
      vertex -0.26810505502243942 0.33333298563957214 -0.046270599434632166
      vertex -0.18105936134039052 0.31333300471305847 -0.04289784469249306
      vertex -0.26810505502243942 0.31333300471305847 -0.046270599434632166
    endloop
  endfacet
  facet normal 0.038717892235555003 0 -0.999250181296374
    outer loop
      vertex -0.18105936134039052 0.33333298563957214 -0.04289784469249306
      vertex -0.094014285592844637 0.33333298563957214 -0.039525113893428422
      vertex -0.094014285592844637 0.31333300471305847 -0.039525113893428422
    endloop
  endfacet
  facet normal 0.038717892235555003 0 -0.999250181296374
    outer loop
      vertex -0.18105936134039052 0.33333298563957214 -0.04289784469249306
      vertex -0.094014285592844637 0.31333300471305847 -0.039525113893428422
      vertex -0.18105936134039052 0.31333300471305847 -0.04289784469249306
    endloop
  endfacet
  facet normal 0.038717892235555107 0 -0.99925018129637388
    outer loop
      vertex -0.44219641260656117 0.33333298563957214 -0.053016107765027277
      vertex -0.3551507338145003 0.33333298563957214 -0.049643353599829722
      vertex -0.3551507338145003 0.31333300471305847 -0.049643353599829722
    endloop
  endfacet
  facet normal 0.038717892235555107 0 -0.99925018129637388
    outer loop
      vertex -0.44219641260656117 0.33333298563957214 -0.053016107765027277
      vertex -0.3551507338145003 0.31333300471305847 -0.049643353599829722
      vertex -0.44219641260656117 0.31333300471305847 -0.053016107765027277
    endloop
  endfacet
  facet normal 0.038717892235555086 0 -0.999250181296374
    outer loop
      vertex -0.52924212117859804 0.33333298563957214 -0.056388863084107933
      vertex -0.52924212117859804 0.31333300471305847 -0.056388863084107933
      vertex -0.61628779997065897 0.31333300471305847 -0.059761617249305489
    endloop
  endfacet
  facet normal 0.038717892235555086 -0 -0.999250181296374
    outer loop
      vertex -0.52924212117859804 0.33333298563957214 -0.056388863084107933
      vertex -0.61628779997065897 0.31333300471305847 -0.059761617249305489
      vertex -0.61628779997065897 0.33333298563957214 -0.059761617249305489
    endloop
  endfacet
  facet normal 0.038717892235555065 0 -0.999250181296374
    outer loop
      vertex -0.44219641260656117 0.33333298563957214 -0.053016107765027277
      vertex -0.44219641260656117 0.31333300471305847 -0.053016107765027277
      vertex -0.52924212117859804 0.31333300471305847 -0.056388863084107933
    endloop
  endfacet
  facet normal 0.038717892235555065 -0 -0.999250181296374
    outer loop
      vertex -0.44219641260656117 0.33333298563957214 -0.053016107765027277
      vertex -0.52924212117859804 0.31333300471305847 -0.056388863084107933
      vertex -0.52924212117859804 0.33333298563957214 -0.056388863084107933
    endloop
  endfacet
  facet normal 0.038717892235555107 0 -0.99925018129637388
    outer loop
      vertex -0.3551507338145003 0.33333298563957214 -0.049643353599829722
      vertex -0.26810505502243942 0.33333298563957214 -0.046270599434632166
      vertex -0.26810505502243942 0.31333300471305847 -0.046270599434632166
    endloop
  endfacet
  facet normal 0.038717892235555107 0 -0.99925018129637388
    outer loop
      vertex -0.3551507338145003 0.33333298563957214 -0.049643353599829722
      vertex -0.26810505502243942 0.31333300471305847 -0.046270599434632166
      vertex -0.3551507338145003 0.31333300471305847 -0.049643353599829722
    endloop
  endfacet
  facet normal 0.038717892235555058 -0 -0.999250181296374
    outer loop
      vertex -0.61628779997065897 0.31333300471305847 -0.059761617249305489
      vertex -0.70333347876271979 0.31333300471305847 -0.063134371414503038
      vertex -0.70333347876271979 0.33333298563957214 -0.063134371414503038
    endloop
  endfacet
  facet normal 0.038717892235555058 -0 -0.999250181296374
    outer loop
      vertex -0.61628779997065897 0.31333300471305847 -0.059761617249305489
      vertex -0.70333347876271979 0.33333298563957214 -0.063134371414503038
      vertex -0.61628779997065897 0.33333298563957214 -0.059761617249305489
    endloop
  endfacet
  facet normal 0.038717892235555086 0 -0.999250181296374
    outer loop
      vertex -0.79037915755478072 0.33333298563957214 -0.066507125579700593
      vertex -0.70333347876271979 0.33333298563957214 -0.063134371414503038
      vertex -0.70333347876271979 0.31333300471305847 -0.063134371414503038
    endloop
  endfacet
  facet normal 0.038717892235555086 0 -0.999250181296374
    outer loop
      vertex -0.79037915755478072 0.33333298563957214 -0.066507125579700593
      vertex -0.70333347876271979 0.31333300471305847 -0.063134371414503038
      vertex -0.79037915755478072 0.31333300471305847 -0.066507125579700593
    endloop
  endfacet
  facet normal 0.038717892235554767 0 -0.999250181296374
    outer loop
      vertex -0.87742483634684154 0.33333298563957214 -0.069879879744898149
      vertex -0.87742483634684154 0.31333300471305847 -0.069879879744898149
      vertex -0.96447051513890247 0.31333300471305847 -0.073252633910095677
    endloop
  endfacet
  facet normal 0.038717892235554767 -0 -0.999250181296374
    outer loop
      vertex -0.87742483634684154 0.33333298563957214 -0.069879879744898149
      vertex -0.96447051513890247 0.31333300471305847 -0.073252633910095677
      vertex -0.96447051513890247 0.33333298563957214 -0.073252633910095677
    endloop
  endfacet
  facet normal 0.038717892235555142 0 -0.999250181296374
    outer loop
      vertex -0.87742483634684154 0.33333298563957214 -0.069879879744898149
      vertex -0.79037915755478072 0.33333298563957214 -0.066507125579700593
      vertex -0.79037915755478072 0.31333300471305847 -0.066507125579700593
    endloop
  endfacet
  facet normal 0.038717892235555135 0 -0.999250181296374
    outer loop
      vertex -0.87742483634684154 0.33333298563957214 -0.069879879744898149
      vertex -0.79037915755478072 0.31333300471305847 -0.066507125579700593
      vertex -0.87742483634684154 0.31333300471305847 -0.069879879744898149
    endloop
  endfacet
  facet normal 0.038717892235554878 0 -0.999250181296374
    outer loop
      vertex -1.0515152409717294 0.33333298563957214 -0.076625351151033833
      vertex -1.0515152409717294 0.31333300471305847 -0.076625351151033833
      vertex -1.1385598476846526 0.31333300471305847 -0.079998063776439532
    endloop
  endfacet
  facet normal 0.038717892235554878 -0 -0.999250181296374
    outer loop
      vertex -1.0515152409717294 0.33333298563957214 -0.076625351151033833
      vertex -1.1385598476846526 0.31333300471305847 -0.079998063776439532
      vertex -1.1385598476846526 0.33333298563957214 -0.079998063776439532
    endloop
  endfacet
  facet normal 0.038717892235554913 0 -0.99925018129637377
    outer loop
      vertex -1.2256045735174799 0.33333298563957214 -0.083370781017377688
      vertex -1.2256045735174799 0.31333300471305847 -0.083370781017377688
      vertex -1.3126492993503072 0.31333300471305847 -0.086743498258315815
    endloop
  endfacet
  facet normal 0.038717892235554913 0 -0.99925018129637377
    outer loop
      vertex -1.2256045735174799 0.33333298563957214 -0.083370781017377688
      vertex -1.3126492993503072 0.31333300471305847 -0.086743498258315815
      vertex -1.3126492993503072 0.33333298563957214 -0.086743498258315815
    endloop
  endfacet
  facet normal 0.038717892235555232 0 -0.99925018129637377
    outer loop
      vertex -1.1385598476846526 0.33333298563957214 -0.079998063776439532
      vertex -1.1385598476846526 0.31333300471305847 -0.079998063776439532
      vertex -1.2256045735174799 0.31333300471305847 -0.083370781017377688
    endloop
  endfacet
  facet normal 0.038717892235555232 0 -0.99925018129637377
    outer loop
      vertex -1.1385598476846526 0.33333298563957214 -0.079998063776439532
      vertex -1.2256045735174799 0.31333300471305847 -0.083370781017377688
      vertex -1.2256045735174799 0.33333298563957214 -0.083370781017377688
    endloop
  endfacet
  facet normal 0.038717892235555385 0 -0.999250181296374
    outer loop
      vertex -0.96447051513890247 0.33333298563957214 -0.073252633910095677
      vertex -0.96447051513890247 0.31333300471305847 -0.073252633910095677
      vertex -1.0515152409717294 0.31333300471305847 -0.076625351151033833
    endloop
  endfacet
  facet normal 0.038717892235555385 -0 -0.999250181296374
    outer loop
      vertex -0.96447051513890247 0.33333298563957214 -0.073252633910095677
      vertex -1.0515152409717294 0.31333300471305847 -0.076625351151033833
      vertex -1.0515152409717294 0.33333298563957214 -0.076625351151033833
    endloop
  endfacet
  facet normal 0.019508651224719894 0.86378150496537576 -0.50348875281096661
    outer loop
      vertex -0.010066131382957699 -0.2666659951210022 0.04378745178611218
      vertex -0.006968707717821862 -0.31333199143409729 -0.036152363638457828
      vertex -0.094014285592844637 -0.31333199143409729 -0.039525113893428422
    endloop
  endfacet
  facet normal 0.019508651224719856 0.86378150496537576 -0.50348875281096661
    outer loop
      vertex -0.35980299980912822 -0.2666659951210022 0.030236216433862855
      vertex -0.18105936134039052 -0.31333199143409729 -0.04289784469249306
      vertex -0.26810505502243942 -0.31333199143409729 -0.046270599434632166
    endloop
  endfacet
  facet normal 0.019508651224719911 0.86378150496537598 -0.50348875281096661
    outer loop
      vertex -0.35980299980912822 -0.2666659951210022 0.030236216433862855
      vertex -0.26810505502243942 -0.31333199143409729 -0.046270599434632166
      vertex -0.3551507338145003 -0.31333199143409729 -0.049643353599829722
    endloop
  endfacet
  facet normal 0.019508651224719762 0.86378150496537576 -0.50348875281096661
    outer loop
      vertex -0.18105936134039052 -0.31333199143409729 -0.04289784469249306
      vertex -0.010066131382957699 -0.2666659951210022 0.04378745178611218
      vertex -0.094014285592844637 -0.31333199143409729 -0.039525113893428422
    endloop
  endfacet
  facet normal 0.019508651224719814 0.86378150496537598 -0.50348875281096661
    outer loop
      vertex -0.35980299980912822 -0.2666659951210022 0.030236216433862855
      vertex -0.44219641260656117 -0.31333199143409729 -0.053016107765027277
      vertex -0.52924212117859804 -0.31333199143409729 -0.056388863084107933
    endloop
  endfacet
  facet normal 0.019508651224719831 0.86378150496537576 -0.50348875281096661
    outer loop
      vertex -0.70953957456765426 -0.2666659951210022 0.016684992460337722
      vertex -0.52924212117859804 -0.31333199143409729 -0.056388863084107933
      vertex -0.61628779997065897 -0.31333199143409729 -0.059761617249305489
    endloop
  endfacet
  facet normal 0.019508651224719849 0.86378150496537598 -0.50348875281096661
    outer loop
      vertex -0.70953957456765426 -0.2666659951210022 0.016684992460337722
      vertex -0.70333347876271979 -0.31333199143409729 -0.063134371414503038
      vertex -0.79037915755478072 -0.31333199143409729 -0.066507125579700593
    endloop
  endfacet
  facet normal 0.019508651224719814 0.86378150496537598 -0.50348875281096661
    outer loop
      vertex -0.70953957456765426 -0.2666659951210022 0.016684992460337722
      vertex -0.79037915755478072 -0.31333199143409729 -0.066507125579700593
      vertex -0.87742483634684154 -0.31333199143409729 -0.069879879744898149
    endloop
  endfacet
  facet normal 0.019508651224719811 0.86378150496537576 -0.50348875281096661
    outer loop
      vertex -0.70333347876271979 -0.31333199143409729 -0.063134371414503038
      vertex -0.70953957456765426 -0.2666659951210022 0.016684992460337722
      vertex -0.61628779997065897 -0.31333199143409729 -0.059761617249305489
    endloop
  endfacet
  facet normal 0.019508651224719863 0.86378150496537576 -0.50348875281096661
    outer loop
      vertex -0.44219641260656117 -0.31333199143409729 -0.053016107765027277
      vertex -0.35980299980912822 -0.2666659951210022 0.030236216433862855
      vertex -0.3551507338145003 -0.31333199143409729 -0.049643353599829722
    endloop
  endfacet
  facet normal 0.019508651224719998 0.86378150496537598 -0.50348875281096661
    outer loop
      vertex -0.96447051513890247 -0.31333199143409729 -0.073252633910095677
      vertex -1.0515152409717294 -0.31333199143409729 -0.076625351151033833
      vertex -1.0592790677638331 -0.2666659951210022 0.0031336554062681432
    endloop
  endfacet
  facet normal 0.019508651224719838 0.86378150496537576 -0.50348875281096661
    outer loop
      vertex -0.35980299980912822 -0.2666659951210022 0.030236216433862855
      vertex -0.52924212117859804 -0.31333199143409729 -0.056388863084107933
      vertex -0.70953957456765426 -0.2666659951210022 0.016684992460337722
    endloop
  endfacet
  facet normal 0.019508651224719648 0.86378150496537609 -0.50348875281096628
    outer loop
      vertex -0.70953957456765426 -0.2666659951210022 0.016684992460337722
      vertex -0.87742483634684154 -0.31333199143409729 -0.069879879744898149
      vertex -0.96447051513890247 -0.31333199143409729 -0.073252633910095677
    endloop
  endfacet
  facet normal 0.019508651224719845 0.86378150496537576 -0.50348875281096672
    outer loop
      vertex -0.70953957456765426 -0.2666659951210022 0.016684992460337722
      vertex -0.96447051513890247 -0.31333199143409729 -0.073252633910095677
      vertex -1.0592790677638331 -0.2666659951210022 0.0031336554062681432
    endloop
  endfacet
  facet normal 0.019508651224719838 0.86378150496537576 -0.50348875281096661
    outer loop
      vertex -0.35980299980912822 -0.2666659951210022 0.030236216433862855
      vertex -0.010066131382957699 -0.2666659951210022 0.04378745178611218
      vertex -0.18105936134039052 -0.31333199143409729 -0.04289784469249306
    endloop
  endfacet
  facet normal 0.019508641251156662 0.863781655227709 -0.50348849540839835
    outer loop
      vertex -1.3608329772680436 -0.28999900817871094 -0.04858055116755073
      vertex -1.1385598476846526 -0.31333199143409729 -0.079998063776439532
      vertex -1.2256045735174799 -0.31333199143409729 -0.083370781017377688
    endloop
  endfacet
  facet normal 0.019508641251156523 0.863781655227709 -0.50348849540839891
    outer loop
      vertex -1.3608329772680436 -0.28999900817871094 -0.04858055116755073
      vertex -1.2256045735174799 -0.31333199143409729 -0.083370781017377688
      vertex -1.3126492993503072 -0.31333199143409729 -0.086743498258315815
    endloop
  endfacet
  facet normal 0.019508661198278824 0.86378135470300432 -0.50348901021342418
    outer loop
      vertex -1.4090166550415446 -0.2666659951210022 -0.010417607799282615
      vertex -1.0592790677638331 -0.2666659951210022 0.0031336554062681432
      vertex -1.3608329772680436 -0.28999900817871094 -0.04858055116755073
    endloop
  endfacet
  facet normal 0.019508597008456589 0.86378152859596558 -0.50348871437121534
    outer loop
      vertex -1.1385598476846526 -0.31333199143409729 -0.079998063776439532
      vertex -1.3608329772680436 -0.28999900817871094 -0.04858055116755073
      vertex -1.0592790677638331 -0.2666659951210022 0.0031336554062681432
    endloop
  endfacet
  facet normal 0.019508651224719745 0.86378150496537598 -0.50348875281096661
    outer loop
      vertex -1.0592790677638331 -0.2666659951210022 0.0031336554062681432
      vertex -1.0515152409717294 -0.31333199143409729 -0.076625351151033833
      vertex -1.1385598476846526 -0.31333199143409729 -0.079998063776439532
    endloop
  endfacet
  facet normal 0.024787051881979365 -0.76821135110925587 -0.63971628249239654
    outer loop
      vertex -0.28830675272515005 -0.099998697638511658 -0.0070234360837336321
      vertex -0.010066131382957699 -0.1333329975605011 0.04378745178611218
      vertex -0.20991546665867694 -0.1333329975605011 0.036043900499972734
    endloop
  endfacet
  facet normal 0.024787051881979362 -0.76821135110925576 -0.63971628249239654
    outer loop
      vertex -0.60961453261403609 -0.1333329975605011 0.02055678260699971
      vertex -0.28830675272515005 -0.099998697638511658 -0.0070234360837336321
      vertex -0.40976549100596127 -0.1333329975605011 0.028300322514414965
    endloop
  endfacet
  facet normal 0.024787051881979369 -0.76821135110925576 -0.63971628249239654
    outer loop
      vertex -0.20991546665867694 -0.1333329975605011 0.036043900499972734
      vertex -0.40976549100596127 -0.1333329975605011 0.028300322514414965
      vertex -0.28830675272515005 -0.099998697638511658 -0.0070234360837336321
    endloop
  endfacet
  facet normal 0.024784973548823912 -0.76821752341737448 -0.63970895085238566
    outer loop
      vertex -0.28830675272515005 -0.099998697638511658 -0.0070234360837336321
      vertex -0.006968707717821862 -0.066665701568126678 -0.036152363638457828
      vertex -0.010066131382957699 -0.1333329975605011 0.04378745178611218
    endloop
  endfacet
  facet normal 0.024787051881979359 -0.76821135110925598 -0.63971628249239654
    outer loop
      vertex -0.60961453261403609 -0.1333329975605011 0.02055678260699971
      vertex -0.80946455696132036 -0.1333329975605011 0.012813204621441941
      vertex -0.84788587389430792 -0.099998697638511658 -0.028705417749812605
    endloop
  endfacet
  facet normal 0.024787051881979369 -0.76821135110925598 -0.63971628249239654
    outer loop
      vertex -1.0093136283493711 -0.1333329975605011 0.0050696635601435794
      vertex -1.2091666902542124 -0.1333329975605011 -0.0026740321214910601
      vertex -1.1276779211068868 -0.099998697638511658 -0.03954650493209149
    endloop
  endfacet
  facet normal 0.024787051881979369 -0.76821135110925598 -0.63971628249239654
    outer loop
      vertex -1.2091666902542124 -0.1333329975605011 -0.0026740321214910601
      vertex -1.4090166550415446 -0.1333329975605011 -0.010417607799282615
      vertex -1.1276779211068868 -0.099998697638511658 -0.03954650493209149
    endloop
  endfacet
  facet normal 0.024787051881979379 -0.76821135110925587 -0.63971628249239654
    outer loop
      vertex -0.84788587389430792 -0.099998697638511658 -0.028705417749812605
      vertex -0.80946455696132036 -0.1333329975605011 0.012813204621441941
      vertex -1.0093136283493711 -0.1333329975605011 0.0050696635601435794
    endloop
  endfacet
  facet normal 0.024787051881979376 -0.76821135110925598 -0.63971628249239654
    outer loop
      vertex -0.84788587389430792 -0.099998697638511658 -0.028705417749812605
      vertex -0.28830675272515005 -0.099998697638511658 -0.0070234360837336321
      vertex -0.60961453261403609 -0.1333329975605011 0.02055678260699971
    endloop
  endfacet
  facet normal 0.024786478338418013 -0.76822369575516092 -0.63970148020139916
    outer loop
      vertex -0.19349503263879445 -0.066665701568126678 -0.043379688969552625
      vertex -0.28830675272515005 -0.099998697638511658 -0.0070234360837336321
      vertex -0.38002106389212248 -0.066665701568126678 -0.050607002921923223
    endloop
  endfacet
  facet normal 0.024786478338418044 -0.76822369575516081 -0.63970148020139905
    outer loop
      vertex -0.84788587389430792 -0.099998697638511658 -0.028705417749812605
      vertex -0.75307413891796415 -0.066665701568126678 -0.065061670058690041
      vertex -0.56654708025546252 -0.066665701568126678 -0.057834316297352258
    endloop
  endfacet
  facet normal 0.024786478338418013 -0.76822369575516081 -0.63970148020139928
    outer loop
      vertex -0.84788587389430792 -0.099998697638511658 -0.028705417749812605
      vertex -0.56654708025546252 -0.066665701568126678 -0.057834316297352258
      vertex -0.28830675272515005 -0.099998697638511658 -0.0070234360837336321
    endloop
  endfacet
  facet normal 0.024786478338417961 -0.76822369575516103 -0.63970148020139905
    outer loop
      vertex -0.38002106389212248 -0.066665701568126678 -0.050607002921923223
      vertex -0.28830675272515005 -0.099998697638511658 -0.0070234360837336321
      vertex -0.56654708025546252 -0.066665701568126678 -0.057834316297352258
    endloop
  endfacet
  facet normal 0.02478705188197939 -0.76821135110925598 -0.63971628249239654
    outer loop
      vertex -1.0093136283493711 -0.1333329975605011 0.0050696635601435794
      vertex -1.1276779211068868 -0.099998697638511658 -0.03954650493209149
      vertex -0.84788587389430792 -0.099998697638511658 -0.028705417749812605
    endloop
  endfacet
  facet normal 0.024786478338418072 -0.76822369575516092 -0.63970148020139928
    outer loop
      vertex -1.1276779211068868 -0.099998697638511658 -0.03954650493209149
      vertex -1.1261292092022011 -0.066665701568126678 -0.079516414505624994
      vertex -0.93960018506128029 -0.066665701568126678 -0.072288984588002175
    endloop
  endfacet
  facet normal 0.02478647833841803 -0.76822369575516081 -0.63970148020139939
    outer loop
      vertex -1.1276779211068868 -0.099998697638511658 -0.03954650493209149
      vertex -0.93960018506128029 -0.066665701568126678 -0.072288984588002175
      vertex -0.84788587389430792 -0.099998697638511658 -0.028705417749812605
    endloop
  endfacet
  facet normal 0.024786478338417982 -0.76822369575516092 -0.63970148020139916
    outer loop
      vertex -1.1276779211068868 -0.099998697638511658 -0.03954650493209149
      vertex -1.3126492993503072 -0.066665701568126678 -0.086743498258315815
      vertex -1.1261292092022011 -0.066665701568126678 -0.079516414505624994
    endloop
  endfacet
  facet normal 0.024786478338417951 -0.76822369575516081 -0.63970148020139928
    outer loop
      vertex -0.93960018506128029 -0.066665701568126678 -0.072288984588002175
      vertex -0.75307413891796415 -0.066665701568126678 -0.065061670058690041
      vertex -0.84788587389430792 -0.099998697638511658 -0.028705417749812605
    endloop
  endfacet
  facet normal 0.024788857660488016 -0.76821875798666084 -0.63970731777377721
    outer loop
      vertex -1.4090166550415446 -0.1333329975605011 -0.010417607799282615
      vertex -1.3126492993503072 -0.066665701568126678 -0.086743498258315815
      vertex -1.1276779211068868 -0.099998697638511658 -0.03954650493209149
    endloop
  endfacet
  facet normal 0.024786478338418023 -0.76822369575516092 -0.63970148020139916
    outer loop
      vertex -0.006968707717821862 -0.066665701568126678 -0.036152363638457828
      vertex -0.28830675272515005 -0.099998697638511658 -0.0070234360837336321
      vertex -0.19349503263879445 -0.066665701568126678 -0.043379688969552625
    endloop
  endfacet
  facet normal 0.024786347550276523 0.76822651070163661 -0.63969810475747479
    outer loop
      vertex -0.28830675272515005 0.10000000149011612 -0.0070234360837336321
      vertex -0.006968707717821862 0.066667303442955017 -0.036152363638457828
      vertex -0.19349503263879445 0.066667303442955017 -0.043379688969552625
    endloop
  endfacet
  facet normal 0.024786347550276467 0.7682265107016365 -0.63969810475747479
    outer loop
      vertex -0.56654708025546252 0.066667303442955017 -0.057834316297352258
      vertex -0.28830675272515005 0.10000000149011612 -0.0070234360837336321
      vertex -0.38002106389212248 0.066667303442955017 -0.050607002921923223
    endloop
  endfacet
  facet normal 0.024786347550276509 0.76822651070163661 -0.63969810475747491
    outer loop
      vertex -0.19349503263879445 0.066667303442955017 -0.043379688969552625
      vertex -0.38002106389212248 0.066667303442955017 -0.050607002921923223
      vertex -0.28830675272515005 0.10000000149011612 -0.0070234360837336321
    endloop
  endfacet
  facet normal 0.024784851335632897 0.76822037353804062 -0.63970553290193122
    outer loop
      vertex -0.28830675272515005 0.10000000149011612 -0.0070234360837336321
      vertex -0.010066131382957699 0.13333399593830109 0.04378745178611218
      vertex -0.006968707717821862 0.066667303442955017 -0.036152363638457828
    endloop
  endfacet
  facet normal 0.024786347550276547 0.76822651070163661 -0.63969810475747479
    outer loop
      vertex -0.56654708025546252 0.066667303442955017 -0.057834316297352258
      vertex -0.75307413891796415 0.066667303442955017 -0.065061670058690041
      vertex -0.84788587389430792 0.10000000149011612 -0.028705417749812605
    endloop
  endfacet
  facet normal 0.024786347550276519 0.7682265107016365 -0.63969810475747491
    outer loop
      vertex -1.1261292092022011 0.066667303442955017 -0.079516414505624994
      vertex -1.1276779211068868 0.10000000149011612 -0.03954650493209149
      vertex -0.84788587389430792 0.10000000149011612 -0.028705417749812605
    endloop
  endfacet
  facet normal 0.024786347550276575 0.76822651070163639 -0.63969810475747513
    outer loop
      vertex -1.1261292092022011 0.066667303442955017 -0.079516414505624994
      vertex -0.84788587389430792 0.10000000149011612 -0.028705417749812605
      vertex -0.93960018506128029 0.066667303442955017 -0.072288984588002175
    endloop
  endfacet
  facet normal 0.024786347550276477 0.7682265107016365 -0.63969810475747479
    outer loop
      vertex -1.1261292092022011 0.066667303442955017 -0.079516414505624994
      vertex -1.3126492993503072 0.066667303442955017 -0.086743498258315815
      vertex -1.1276779211068868 0.10000000149011612 -0.03954650493209149
    endloop
  endfacet
  facet normal 0.024786347550276439 0.76822651070163639 -0.63969810475747491
    outer loop
      vertex -0.84788587389430792 0.10000000149011612 -0.028705417749812605
      vertex -0.75307413891796415 0.066667303442955017 -0.065061670058690041
      vertex -0.93960018506128029 0.066667303442955017 -0.072288984588002175
    endloop
  endfacet
  facet normal 0.024786347550276516 0.7682265107016365 -0.63969810475747502
    outer loop
      vertex -0.84788587389430792 0.10000000149011612 -0.028705417749812605
      vertex -0.28830675272515005 0.10000000149011612 -0.0070234360837336321
      vertex -0.56654708025546252 0.066667303442955017 -0.057834316297352258
    endloop
  endfacet
  facet normal 0.024786917830565872 0.76821423640377096 -0.6397128228283625
    outer loop
      vertex -0.20991546665867694 0.13333399593830109 0.036043900499972734
      vertex -0.28830675272515005 0.10000000149011612 -0.0070234360837336321
      vertex -0.40976549100596127 0.13333399593830109 0.028300322514414965
    endloop
  endfacet
  facet normal 0.024786917830565872 0.76821423640377096 -0.63971282282836239
    outer loop
      vertex -0.84788587389430792 0.10000000149011612 -0.028705417749812605
      vertex -0.60961453261403609 0.13333399593830109 0.02055678260699971
      vertex -0.40976549100596127 0.13333399593830109 0.028300322514414965
    endloop
  endfacet
  facet normal 0.024786917830565879 0.76821423640377096 -0.6397128228283625
    outer loop
      vertex -0.84788587389430792 0.10000000149011612 -0.028705417749812605
      vertex -0.40976549100596127 0.13333399593830109 0.028300322514414965
      vertex -0.28830675272515005 0.10000000149011612 -0.0070234360837336321
    endloop
  endfacet
  facet normal 0.024786917830565879 0.76821423640377096 -0.6397128228283625
    outer loop
      vertex -0.84788587389430792 0.10000000149011612 -0.028705417749812605
      vertex -0.80946455696132036 0.13333399593830109 0.012813204621441941
      vertex -0.60961453261403609 0.13333399593830109 0.02055678260699971
    endloop
  endfacet
  facet normal 0.024786917830565861 0.76821423640377096 -0.63971282282836239
    outer loop
      vertex -1.1276779211068868 0.10000000149011612 -0.03954650493209149
      vertex -1.0093136283493711 0.13333399593830109 0.0050696635601435794
      vertex -0.80946455696132036 0.13333399593830109 0.012813204621441941
    endloop
  endfacet
  facet normal 0.024786917830565885 0.76821423640377096 -0.63971282282836239
    outer loop
      vertex -1.1276779211068868 0.10000000149011612 -0.03954650493209149
      vertex -0.80946455696132036 0.13333399593830109 0.012813204621441941
      vertex -0.84788587389430792 0.10000000149011612 -0.028705417749812605
    endloop
  endfacet
  facet normal 0.024786917830565872 0.76821423640377096 -0.6397128228283625
    outer loop
      vertex -1.1276779211068868 0.10000000149011612 -0.03954650493209149
      vertex -1.2091666902542124 0.13333399593830109 -0.0026740321214910601
      vertex -1.0093136283493711 0.13333399593830109 0.0050696635601435794
    endloop
  endfacet
  facet normal 0.024786917830565872 0.76821423640377107 -0.6397128228283625
    outer loop
      vertex -1.1276779211068868 0.10000000149011612 -0.03954650493209149
      vertex -1.4090166550415446 0.13333399593830109 -0.010417607799282615
      vertex -1.2091666902542124 0.13333399593830109 -0.0026740321214910601
    endloop
  endfacet
  facet normal 0.024788713318896038 0.76822160107192639 -0.63970390911614694
    outer loop
      vertex -1.3126492993503072 0.066667303442955017 -0.086743498258315815
      vertex -1.4090166550415446 0.13333399593830109 -0.010417607799282615
      vertex -1.1276779211068868 0.10000000149011612 -0.03954650493209149
    endloop
  endfacet
  facet normal 0.024786917830565861 0.76821423640377096 -0.6397128228283625
    outer loop
      vertex -0.010066131382957699 0.13333399593830109 0.04378745178611218
      vertex -0.28830675272515005 0.10000000149011612 -0.0070234360837336321
      vertex -0.20991546665867694 0.13333399593830109 0.036043900499972734
    endloop
  endfacet
  facet normal 0.019508651224719894 -0.86378150496537576 -0.50348875281096661
    outer loop
      vertex -0.094014285592844637 0.31333300471305847 -0.039525113893428422
      vertex -0.006968707717821862 0.31333300471305847 -0.036152363638457828
      vertex -0.010066131382957699 0.26666700839996338 0.04378745178611218
    endloop
  endfacet
  facet normal 0.019508651224719762 -0.86378150496537576 -0.50348875281096661
    outer loop
      vertex -0.010066131382957699 0.26666700839996338 0.04378745178611218
      vertex -0.18105936134039052 0.31333300471305847 -0.04289784469249306
      vertex -0.094014285592844637 0.31333300471305847 -0.039525113893428422
    endloop
  endfacet
  facet normal 0.019508651224719856 -0.86378150496537576 -0.50348875281096661
    outer loop
      vertex -0.35980299980912822 0.26666700839996338 0.030236216433862855
      vertex -0.26810505502243942 0.31333300471305847 -0.046270599434632166
      vertex -0.18105936134039052 0.31333300471305847 -0.04289784469249306
    endloop
  endfacet
  facet normal 0.019508651224719838 -0.86378150496537576 -0.50348875281096661
    outer loop
      vertex -0.35980299980912822 0.26666700839996338 0.030236216433862855
      vertex -0.18105936134039052 0.31333300471305847 -0.04289784469249306
      vertex -0.010066131382957699 0.26666700839996338 0.04378745178611218
    endloop
  endfacet
  facet normal 0.019508651224719831 -0.86378150496537576 -0.50348875281096661
    outer loop
      vertex -0.70953957456765426 0.26666700839996338 0.016684992460337722
      vertex -0.61628779997065897 0.31333300471305847 -0.059761617249305489
      vertex -0.52924212117859804 0.31333300471305847 -0.056388863084107933
    endloop
  endfacet
  facet normal 0.019508651224719838 -0.86378150496537576 -0.50348875281096661
    outer loop
      vertex -0.70953957456765426 0.26666700839996338 0.016684992460337722
      vertex -0.52924212117859804 0.31333300471305847 -0.056388863084107933
      vertex -0.35980299980912822 0.26666700839996338 0.030236216433862855
    endloop
  endfacet
  facet normal 0.019508651224719686 -0.86378150496537554 -0.50348875281096683
    outer loop
      vertex -1.0592790677638331 0.26666700839996338 0.0031336554062681432
      vertex -0.96447051513890247 0.31333300471305847 -0.073252633910095677
      vertex -0.87742483634684154 0.31333300471305847 -0.069879879744898149
    endloop
  endfacet
  facet normal 0.019508651224719842 -0.86378150496537598 -0.50348875281096661
    outer loop
      vertex -1.0592790677638331 0.26666700839996338 0.0031336554062681432
      vertex -0.87742483634684154 0.31333300471305847 -0.069879879744898149
      vertex -0.70953957456765426 0.26666700839996338 0.016684992460337722
    endloop
  endfacet
  facet normal 0.019508642606771046 -0.86378163480394221 -0.50348853039475527
    outer loop
      vertex -1.4090166550415446 0.26666700839996338 -0.010417607799282615
      vertex -1.3608329772680436 0.28999999165534973 -0.04858055116755073
      vertex -1.0592790677638331 0.26666700839996338 0.0031336554062681432
    endloop
  endfacet
  facet normal 0.019508698071861435 -0.86378148454667303 -0.50348878602595182
    outer loop
      vertex -1.0592790677638331 0.26666700839996338 0.0031336554062681432
      vertex -1.3608329772680436 0.28999999165534973 -0.04858055116755073
      vertex -1.1385598476846526 0.31333300471305847 -0.079998063776439532
    endloop
  endfacet
  facet normal 0.019508651224719863 -0.86378150496537576 -0.50348875281096661
    outer loop
      vertex -0.44219641260656117 0.31333300471305847 -0.053016107765027277
      vertex -0.3551507338145003 0.31333300471305847 -0.049643353599829722
      vertex -0.35980299980912822 0.26666700839996338 0.030236216433862855
    endloop
  endfacet
  facet normal 0.019508651224719911 -0.86378150496537598 -0.50348875281096661
    outer loop
      vertex -0.3551507338145003 0.31333300471305847 -0.049643353599829722
      vertex -0.26810505502243942 0.31333300471305847 -0.046270599434632166
      vertex -0.35980299980912822 0.26666700839996338 0.030236216433862855
    endloop
  endfacet
  facet normal 0.019508651224719814 -0.86378150496537598 -0.50348875281096661
    outer loop
      vertex -0.35980299980912822 0.26666700839996338 0.030236216433862855
      vertex -0.52924212117859804 0.31333300471305847 -0.056388863084107933
      vertex -0.44219641260656117 0.31333300471305847 -0.053016107765027277
    endloop
  endfacet
  facet normal 0.019508651224719811 -0.86378150496537576 -0.50348875281096661
    outer loop
      vertex -0.70953957456765426 0.26666700839996338 0.016684992460337722
      vertex -0.70333347876271979 0.31333300471305847 -0.063134371414503038
      vertex -0.61628779997065897 0.31333300471305847 -0.059761617249305489
    endloop
  endfacet
  facet normal 0.019508651224719849 -0.86378150496537598 -0.50348875281096661
    outer loop
      vertex -0.70953957456765426 0.26666700839996338 0.016684992460337722
      vertex -0.79037915755478072 0.31333300471305847 -0.066507125579700593
      vertex -0.70333347876271979 0.31333300471305847 -0.063134371414503038
    endloop
  endfacet
  facet normal 0.019508651224719998 -0.86378150496537598 -0.50348875281096661
    outer loop
      vertex -1.0592790677638331 0.26666700839996338 0.0031336554062681432
      vertex -1.0515152409717294 0.31333300471305847 -0.076625351151033833
      vertex -0.96447051513890247 0.31333300471305847 -0.073252633910095677
    endloop
  endfacet
  facet normal 0.01950865984266403 -0.86378137512680342 -0.50348897522705671
    outer loop
      vertex -1.3608329772680436 0.28999999165534973 -0.04858055116755073
      vertex -1.2256045735174799 0.31333300471305847 -0.083370781017377688
      vertex -1.1385598476846526 0.31333300471305847 -0.079998063776439532
    endloop
  endfacet
  facet normal 0.019508659842663881 -0.86378137512680309 -0.50348897522705705
    outer loop
      vertex -1.3608329772680436 0.28999999165534973 -0.04858055116755073
      vertex -1.3126492993503072 0.31333300471305847 -0.086743498258315815
      vertex -1.2256045735174799 0.31333300471305847 -0.083370781017377688
    endloop
  endfacet
  facet normal 0.019508651224719745 -0.86378150496537598 -0.50348875281096661
    outer loop
      vertex -1.0592790677638331 0.26666700839996338 0.0031336554062681432
      vertex -1.1385598476846526 0.31333300471305847 -0.079998063776439532
      vertex -1.0515152409717294 0.31333300471305847 -0.076625351151033833
    endloop
  endfacet
  facet normal 0.019508651224719814 -0.86378150496537598 -0.50348875281096661
    outer loop
      vertex -0.70953957456765426 0.26666700839996338 0.016684992460337722
      vertex -0.87742483634684154 0.31333300471305847 -0.069879879744898149
      vertex -0.79037915755478072 0.31333300471305847 -0.066507125579700593
    endloop
  endfacet
  facet normal 0 -1 -0
    outer loop
      vertex -1.2327282674938942 -0.33333200216293335 -0.040281085235410706
      vertex -1.0578594142950863 -0.33333200216293335 -0.033505451324869102
      vertex -1.0595371844914754 -0.33333200216293335 0.0097952573685636465
    endloop
  endfacet
  facet normal 0 -1 -0
    outer loop
      vertex -1.2327282674938942 -0.33333200216293335 -0.040281085235410706
      vertex -1.0595371844914754 -0.33333200216293335 0.0097952573685636465
      vertex -1.2344060376902832 -0.33333200216293335 0.0030196234580220499
    endloop
  endfacet
  facet normal -0 -1 -0
    outer loop
      vertex -0.47999515217191507 -0.33333200216293335 0.11898177255747508
      vertex -0.26810505502243942 -0.33333200216293335 -0.046270599434632166
      vertex -0.18105936134039052 -0.33333200216293335 -0.04289784469249306
    endloop
  endfacet
  facet normal 0 -1 -0
    outer loop
      vertex -0.47999515217191507 -0.33333200216293335 0.11898177255747508
      vertex -0.18105936134039052 -0.33333200216293335 -0.04289784469249306
      vertex -0.013679772925956448 -0.33333200216293335 0.13705006910559656
    endloop
  endfacet
  facet normal 0 -1 -0
    outer loop
      vertex -0.47999515217191507 -0.33333200216293335 0.11898177255747508
      vertex -0.94631125026941487 -0.33333200216293335 0.10091344815605219
      vertex -1.0595371844914754 -0.33333200216293335 0.0097952573685636465
    endloop
  endfacet
  facet normal -0 -1 0
    outer loop
      vertex -0.013679772925956448 -0.33333200216293335 0.13705006910559656
      vertex -0.094014285592844637 -0.33333200216293335 -0.039525113893428422
      vertex -0.006968707717821862 -0.33333200216293335 -0.036152363638457828
    endloop
  endfacet
  facet normal -0 -1 0
    outer loop
      vertex -0.013679772925956448 -0.33333200216293335 0.13705006910559656
      vertex -0.18105936134039052 -0.33333200216293335 -0.04289784469249306
      vertex -0.094014285592844637 -0.33333200216293335 -0.039525113893428422
    endloop
  endfacet
  facet normal -0 -1 0
    outer loop
      vertex -1.0595371844914754 -0.33333200216293335 0.0097952573685636465
      vertex -0.70333347876271979 -0.33333200216293335 -0.063134371414503038
      vertex -0.47999515217191507 -0.33333200216293335 0.11898177255747508
    endloop
  endfacet
  facet normal -0 -1 -0
    outer loop
      vertex -1.4126302965845434 -0.33333200216293335 0.08284500952020174
      vertex -1.2344060376902832 -0.33333200216293335 0.0030196234580220499
      vertex -1.0595371844914754 -0.33333200216293335 0.0097952573685636465
    endloop
  endfacet
  facet normal 0 -1 -0
    outer loop
      vertex -1.4126302965845434 -0.33333200216293335 0.08284500952020174
      vertex -1.0595371844914754 -0.33333200216293335 0.0097952573685636465
      vertex -0.94631125026941487 -0.33333200216293335 0.10091344815605219
    endloop
  endfacet
  facet normal -0 -1 -0
    outer loop
      vertex -1.4090166550415446 -0.33333200216293335 -0.010417607799282615
      vertex -1.2344060376902832 -0.33333200216293335 0.0030196234580220499
      vertex -1.4126302965845434 -0.33333200216293335 0.08284500952020174
    endloop
  endfacet
  facet normal 0 -1 0
    outer loop
      vertex -1.2327282674938942 -0.33333200216293335 -0.040281085235410706
      vertex -1.2344060376902832 -0.33333200216293335 0.0030196234580220499
      vertex -1.3608329772680436 -0.33333200216293335 -0.04858055116755073
    endloop
  endfacet
  facet normal 0 -1 -0
    outer loop
      vertex -1.3126492993503072 -0.33333200216293335 -0.086743498258315815
      vertex -1.2327282674938942 -0.33333200216293335 -0.040281085235410706
      vertex -1.3608329772680436 -0.33333200216293335 -0.04858055116755073
    endloop
  endfacet
  facet normal 0 -1 -0
    outer loop
      vertex -1.3608329772680436 -0.33333200216293335 -0.04858055116755073
      vertex -1.2344060376902832 -0.33333200216293335 0.0030196234580220499
      vertex -1.4090166550415446 -0.33333200216293335 -0.010417607799282615
    endloop
  endfacet
  facet normal -0 -1 -0
    outer loop
      vertex -1.2327282674938942 -0.33333200216293335 -0.040281085235410706
      vertex -1.2256045735174799 -0.33333200216293335 -0.083370781017377688
      vertex -1.1385598476846526 -0.33333200216293335 -0.079998063776439532
    endloop
  endfacet
  facet normal 0 -1 -0
    outer loop
      vertex -1.2327282674938942 -0.33333200216293335 -0.040281085235410706
      vertex -1.1385598476846526 -0.33333200216293335 -0.079998063776439532
      vertex -1.0578594142950863 -0.33333200216293335 -0.033505451324869102
    endloop
  endfacet
  facet normal 0 -1 0
    outer loop
      vertex -0.79037915755478072 -0.33333200216293335 -0.066507125579700593
      vertex -1.0595371844914754 -0.33333200216293335 0.0097952573685636465
      vertex -1.0578594142950863 -0.33333200216293335 -0.033505451324869102
    endloop
  endfacet
  facet normal -0 -1 -0
    outer loop
      vertex -0.47999515217191507 -0.33333200216293335 0.11898177255747508
      vertex -0.3551507338145003 -0.33333200216293335 -0.049643353599829722
      vertex -0.26810505502243942 -0.33333200216293335 -0.046270599434632166
    endloop
  endfacet
  facet normal -0 -1 -0
    outer loop
      vertex -0.47999515217191507 -0.33333200216293335 0.11898177255747508
      vertex -0.44219641260656117 -0.33333200216293335 -0.053016107765027277
      vertex -0.3551507338145003 -0.33333200216293335 -0.049643353599829722
    endloop
  endfacet
  facet normal -0 -1 0
    outer loop
      vertex -0.47999515217191507 -0.33333200216293335 0.11898177255747508
      vertex -0.61628779997065897 -0.33333200216293335 -0.059761617249305489
      vertex -0.52924212117859804 -0.33333200216293335 -0.056388863084107933
    endloop
  endfacet
  facet normal -0 -1 0
    outer loop
      vertex -0.47999515217191507 -0.33333200216293335 0.11898177255747508
      vertex -0.70333347876271979 -0.33333200216293335 -0.063134371414503038
      vertex -0.61628779997065897 -0.33333200216293335 -0.059761617249305489
    endloop
  endfacet
  facet normal -0 -1 0
    outer loop
      vertex -0.47999515217191507 -0.33333200216293335 0.11898177255747508
      vertex -0.52924212117859804 -0.33333200216293335 -0.056388863084107933
      vertex -0.44219641260656117 -0.33333200216293335 -0.053016107765027277
    endloop
  endfacet
  facet normal -0 -1 -0
    outer loop
      vertex -1.0578594142950863 -0.33333200216293335 -0.033505451324869102
      vertex -0.87742483634684154 -0.33333200216293335 -0.069879879744898149
      vertex -0.79037915755478072 -0.33333200216293335 -0.066507125579700593
    endloop
  endfacet
  facet normal -0 -1 -0
    outer loop
      vertex -1.0578594142950863 -0.33333200216293335 -0.033505451324869102
      vertex -0.96447051513890247 -0.33333200216293335 -0.073252633910095677
      vertex -0.87742483634684154 -0.33333200216293335 -0.069879879744898149
    endloop
  endfacet
  facet normal 0 -1 0
    outer loop
      vertex -1.0578594142950863 -0.33333200216293335 -0.033505451324869102
      vertex -1.1385598476846526 -0.33333200216293335 -0.079998063776439532
      vertex -1.0515152409717294 -0.33333200216293335 -0.076625351151033833
    endloop
  endfacet
  facet normal 0 -1 0
    outer loop
      vertex -1.2327282674938942 -0.33333200216293335 -0.040281085235410706
      vertex -1.3126492993503072 -0.33333200216293335 -0.086743498258315815
      vertex -1.2256045735174799 -0.33333200216293335 -0.083370781017377688
    endloop
  endfacet
  facet normal -0 -1 -0
    outer loop
      vertex -1.0578594142950863 -0.33333200216293335 -0.033505451324869102
      vertex -1.0515152409717294 -0.33333200216293335 -0.076625351151033833
      vertex -0.96447051513890247 -0.33333200216293335 -0.073252633910095677
    endloop
  endfacet
  facet normal -0 -1 -0
    outer loop
      vertex -1.0595371844914754 -0.33333200216293335 0.0097952573685636465
      vertex -0.79037915755478072 -0.33333200216293335 -0.066507125579700593
      vertex -0.70333347876271979 -0.33333200216293335 -0.063134371414503038
    endloop
  endfacet
  facet normal 0.038717892235555031 0 -0.999250181296374
    outer loop
      vertex -1.1261292092022011 0.066667303442955017 -0.079516414505624994
      vertex -1.1261292092022011 -0.066665701568126678 -0.079516414505624994
      vertex -1.3126492993503072 -0.066665701568126678 -0.086743498258315815
    endloop
  endfacet
  facet normal 0.038717892235555031 0 -0.999250181296374
    outer loop
      vertex -1.1261292092022011 0.066667303442955017 -0.079516414505624994
      vertex -1.3126492993503072 -0.066665701568126678 -0.086743498258315815
      vertex -1.3126492993503072 0.066667303442955017 -0.086743498258315815
    endloop
  endfacet
  facet normal 0.038717892235554975 0 -0.999250181296374
    outer loop
      vertex -0.93960018506128029 0.066667303442955017 -0.072288984588002175
      vertex -0.75307413891796415 0.066667303442955017 -0.065061670058690041
      vertex -0.75307413891796415 -0.066665701568126678 -0.065061670058690041
    endloop
  endfacet
  facet normal 0.038717892235554975 0 -0.999250181296374
    outer loop
      vertex -0.93960018506128029 0.066667303442955017 -0.072288984588002175
      vertex -0.75307413891796415 -0.066665701568126678 -0.065061670058690041
      vertex -0.93960018506128029 -0.066665701568126678 -0.072288984588002175
    endloop
  endfacet
  facet normal 0.038717892235555169 0 -0.999250181296374
    outer loop
      vertex -1.1261292092022011 0.066667303442955017 -0.079516414505624994
      vertex -0.93960018506128029 0.066667303442955017 -0.072288984588002175
      vertex -0.93960018506128029 -0.066665701568126678 -0.072288984588002175
    endloop
  endfacet
  facet normal 0.038717892235555169 0 -0.999250181296374
    outer loop
      vertex -1.1261292092022011 0.066667303442955017 -0.079516414505624994
      vertex -0.93960018506128029 -0.066665701568126678 -0.072288984588002175
      vertex -1.1261292092022011 -0.066665701568126678 -0.079516414505624994
    endloop
  endfacet
  facet normal 0.038717892235555135 0 -0.99925018129637377
    outer loop
      vertex -0.75307413891796415 -0.066665701568126678 -0.065061670058690041
      vertex -0.75307413891796415 0.066667303442955017 -0.065061670058690041
      vertex -0.56654708025546252 0.066667303442955017 -0.057834316297352258
    endloop
  endfacet
  facet normal 0.038717892235555135 0 -0.99925018129637377
    outer loop
      vertex -0.75307413891796415 -0.066665701568126678 -0.065061670058690041
      vertex -0.56654708025546252 0.066667303442955017 -0.057834316297352258
      vertex -0.56654708025546252 -0.066665701568126678 -0.057834316297352258
    endloop
  endfacet
  facet normal 0.038717892235555017 0 -0.999250181296374
    outer loop
      vertex -0.56654708025546252 0.066667303442955017 -0.057834316297352258
      vertex -0.38002106389212248 0.066667303442955017 -0.050607002921923223
      vertex -0.38002106389212248 -0.066665701568126678 -0.050607002921923223
    endloop
  endfacet
  facet normal 0.038717892235555017 0 -0.999250181296374
    outer loop
      vertex -0.56654708025546252 0.066667303442955017 -0.057834316297352258
      vertex -0.38002106389212248 -0.066665701568126678 -0.050607002921923223
      vertex -0.56654708025546252 -0.066665701568126678 -0.057834316297352258
    endloop
  endfacet
  facet normal 0.0387178922355551 0 -0.999250181296374
    outer loop
      vertex -0.19349503263879445 0.066667303442955017 -0.043379688969552625
      vertex -0.006968707717821862 0.066667303442955017 -0.036152363638457828
      vertex -0.006968707717821862 -0.066665701568126678 -0.036152363638457828
    endloop
  endfacet
  facet normal 0.0387178922355551 0 -0.999250181296374
    outer loop
      vertex -0.19349503263879445 0.066667303442955017 -0.043379688969552625
      vertex -0.006968707717821862 -0.066665701568126678 -0.036152363638457828
      vertex -0.19349503263879445 -0.066665701568126678 -0.043379688969552625
    endloop
  endfacet
  facet normal 0.038717892235555079 0 -0.999250181296374
    outer loop
      vertex -0.38002106389212248 0.066667303442955017 -0.050607002921923223
      vertex -0.19349503263879445 0.066667303442955017 -0.043379688969552625
      vertex -0.19349503263879445 -0.066665701568126678 -0.043379688969552625
    endloop
  endfacet
  facet normal 0.038717892235555079 0 -0.999250181296374
    outer loop
      vertex -0.38002106389212248 0.066667303442955017 -0.050607002921923223
      vertex -0.19349503263879445 -0.066665701568126678 -0.043379688969552625
      vertex -0.38002106389212248 -0.066665701568126678 -0.050607002921923223
    endloop
  endfacet
  facet normal -0.0387178922355551 -0 0.999250181296374
    outer loop
      vertex -0.013679772925956448 2.9462600537044636e-07 0.13705006910559656
      vertex -0.47999515217191507 -0.33333200216293335 0.11898177255747508
      vertex -0.013679772925956448 -0.33333200216293335 0.13705006910559656
    endloop
  endfacet
  facet normal -0.0387178922355551 -0 0.999250181296374
    outer loop
      vertex -0.013679772925956448 0.33333298563957214 0.13705006910559656
      vertex -0.47999515217191507 0.33333298563957214 0.11898177255747508
      vertex -0.013679772925956448 2.9462600537044636e-07 0.13705006910559656
    endloop
  endfacet
  facet normal -0.038717892235555072 4.1602194048606847e-17 0.999250181296374
    outer loop
      vertex -0.013679772925956448 2.9462600537044636e-07 0.13705006910559656
      vertex -0.47999515217191507 0.33333298563957214 0.11898177255747508
      vertex -0.94631125026941487 0.33333298563957214 0.10091344815605219
    endloop
  endfacet
  facet normal -0.038717892235555072 -4.1602243250588262e-17 0.999250181296374
    outer loop
      vertex -0.94631125026941487 -0.33333200216293335 0.10091344815605219
      vertex -0.47999515217191507 -0.33333200216293335 0.11898177255747508
      vertex -0.013679772925956448 2.9462600537044636e-07 0.13705006910559656
    endloop
  endfacet
  facet normal -0.038717892235555086 0 0.999250181296374
    outer loop
      vertex -1.4126302965845434 -0.11111000180244446 0.08284500952020174
      vertex -1.4126302965845434 -0.33333200216293335 0.08284500952020174
      vertex -0.94631125026941487 -0.33333200216293335 0.10091344815605219
    endloop
  endfacet
  facet normal -0.038717892235555086 0 0.999250181296374
    outer loop
      vertex -1.4126302965845434 -0.11111000180244446 0.08284500952020174
      vertex -0.013679772925956448 2.9462600537044636e-07 0.13705006910559656
      vertex -1.4126302965845434 0.11111199855804443 0.08284500952020174
    endloop
  endfacet
  facet normal -0.038717892235555086 0 0.999250181296374
    outer loop
      vertex -1.4126302965845434 0.33333298563957214 0.08284500952020174
      vertex -1.4126302965845434 0.11111199855804443 0.08284500952020174
      vertex -0.94631125026941487 0.33333298563957214 0.10091344815605219
    endloop
  endfacet
  facet normal -0.038717892235555079 0 0.99925018129637388
    outer loop
      vertex -1.4126302965845434 0.11111199855804443 0.08284500952020174
      vertex -0.013679772925956448 2.9462600537044636e-07 0.13705006910559656
      vertex -0.94631125026941487 0.33333298563957214 0.10091344815605219
    endloop
  endfacet
  facet normal -0.038717892235555086 0 0.999250181296374
    outer loop
      vertex -0.94631125026941487 -0.33333200216293335 0.10091344815605219
      vertex -0.013679772925956448 2.9462600537044636e-07 0.13705006910559656
      vertex -1.4126302965845434 -0.11111000180244446 0.08284500952020174
    endloop
  endfacet
endsolid OBJECT
